<svg width="788" height="90" viewBox="0 0 788 90" fill="none" xmlns="http://www.w3.org/2000/svg">
<g style="mix-blend-mode:multiply">
<path d="M52.931 48.1214L55.2195 43.9331L47.7058 30.166L15.4553 89.383H20.0322L47.7058 38.5293L52.931 48.1214Z" fill="#F4F4F4"/>
<path d="M60.6035 34.0371L62.892 29.8356L47.7324 1.99756L0.163452 89.3829H4.74044L47.7324 10.3873L60.6035 34.0371Z" fill="#F4F4F4"/>
<path d="M50.3515 89.383H54.9153L65.1539 70.5821L75.4059 89.383H79.9696L65.1407 62.2056L50.3515 89.383Z" fill="#F4F4F4"/>
<path d="M65.1805 34.0503V34.0635L65.1673 34.0371L62.892 38.2254L62.9052 38.2386L35.0597 89.3829H39.6235L65.1805 42.4401L90.7243 89.3829H95.2881H95.3013L65.1805 34.0503Z" fill="#F4F4F4"/>
<path d="M165.513 48.1214L167.801 43.9331L160.288 30.166L128.037 89.383H132.614L160.288 38.5293L165.513 48.1214Z" fill="#F4F4F4"/>
<path d="M173.185 34.0371L175.474 29.8356L160.314 1.99756L112.745 89.3829H117.322L160.314 10.3873L173.185 34.0371Z" fill="#F4F4F4"/>
<path d="M162.933 89.383H167.497L177.736 70.5821L187.988 89.383H192.551L177.722 62.2056L162.933 89.383Z" fill="#F4F4F4"/>
<path d="M177.762 34.0503V34.0635L177.749 34.0371L175.474 38.2254L175.487 38.2386L147.641 89.3829H152.205L177.762 42.4401L203.306 89.3829H207.87H207.883L177.762 34.0503Z" fill="#F4F4F4"/>
<path d="M98.6507 43.259L96.3622 47.4473L103.876 61.2144L136.126 1.99736L131.549 1.99736L103.876 52.851L98.6507 43.259Z" fill="#F4F4F4"/>
<path d="M90.9782 57.3433L88.6897 61.5447L103.849 89.3828L151.418 1.99743L146.841 1.99743L103.849 80.9931L90.9782 57.3433Z" fill="#F4F4F4"/>
<path d="M101.23 1.99735L96.6665 1.99735L86.4278 20.7983L76.1759 1.99735L71.6121 1.99735L86.441 29.1748L101.23 1.99735Z" fill="#F4F4F4"/>
<path d="M86.4012 57.33L86.4012 57.3168L86.4145 57.3433L88.6897 53.155L88.6765 53.1418L116.522 1.99743L111.958 1.99743L86.4012 48.9403L60.8574 1.99742L56.2937 1.99742L56.2804 1.99742L86.4012 57.33Z" fill="#F4F4F4"/>
<path d="M-13.931 43.259L-16.2195 47.4473L-8.70582 61.2144L23.5447 1.99736L18.9678 1.99736L-8.70582 52.851L-13.931 43.259Z" fill="#F4F4F4"/>
<path d="M-21.6035 57.3433L-23.892 61.5447L-8.73237 89.3828L38.8366 1.99743L34.2596 1.99743L-8.73237 80.9931L-21.6035 57.3433Z" fill="#F4F4F4"/>
<path d="M-26.1805 57.33L-26.1805 57.3168L-26.1673 57.3433L-23.892 53.155L-23.9052 53.1418L3.94031 1.99743L-0.623446 1.99743L-26.1805 48.9403L-51.7243 1.99742L-56.2881 1.99742L-56.3013 1.99742L-26.1805 57.33Z" fill="#F4F4F4"/>
<path d="M211.232 43.259L208.944 47.4473L216.458 61.2144L248.708 1.99736L244.131 1.99736L216.458 52.851L211.232 43.259Z" fill="#F4F4F4"/>
<path d="M203.56 57.3433L201.271 61.5447L216.431 89.3828L264 1.99743L259.423 1.99743L216.431 80.9931L203.56 57.3433Z" fill="#F4F4F4"/>
<path d="M213.812 1.99735L209.248 1.99735L199.01 20.7983L188.758 1.99735L184.194 1.99735L199.023 29.1748L213.812 1.99735Z" fill="#F4F4F4"/>
<path d="M198.983 57.33L198.983 57.3168L198.996 57.3433L201.271 53.155L201.258 53.1418L229.104 1.99743L224.54 1.99743L198.983 48.9403L173.439 1.99742L168.875 1.99742L168.862 1.99742L198.983 57.33Z" fill="#F4F4F4"/>
</g>
<g style="mix-blend-mode:multiply">
<path d="M576.814 47.1214L579.103 42.9331L571.589 29.166L539.338 88.383H543.915L571.589 37.5293L576.814 47.1214Z" fill="#F4F4F4"/>
<path d="M584.486 33.0371L586.775 28.8356L571.615 0.997559L524.046 88.3829H528.623L571.615 9.38729L584.486 33.0371Z" fill="#F4F4F4"/>
<path d="M574.235 88.383H578.798L589.037 69.5821L599.289 88.383H603.853L589.024 61.2056L574.235 88.383Z" fill="#F4F4F4"/>
<path d="M589.063 33.0503V33.0635L589.05 33.0371L586.775 37.2254L586.788 37.2386L558.943 88.3829H563.506L589.063 41.4401L614.607 88.3829H619.171H619.184L589.063 33.0503Z" fill="#F4F4F4"/>
<path d="M464.232 47.1214L466.521 42.9331L459.007 29.166L426.757 88.383H431.334L459.007 37.5293L464.232 47.1214Z" fill="#F4F4F4"/>
<path d="M471.905 33.0371L474.193 28.8356L459.034 0.997559L411.465 88.3829H416.042L459.034 9.38729L471.905 33.0371Z" fill="#F4F4F4"/>
<path d="M461.653 88.383H466.217L476.455 69.5821L486.707 88.383H491.271L476.442 61.2056L461.653 88.383Z" fill="#F4F4F4"/>
<path d="M476.482 33.0503V33.0635L476.469 33.0371L474.193 37.2254L474.206 37.2386L446.361 88.3829H450.925L476.482 41.4401L502.026 88.3829H506.589H506.603L476.482 33.0503Z" fill="#F4F4F4"/>
<path d="M689.396 47.1214L691.684 42.9331L684.171 29.166L651.92 88.383H656.497L684.171 37.5293L689.396 47.1214Z" fill="#F4F4F4"/>
<path d="M697.068 33.0371L699.357 28.8356L684.197 0.997559L636.628 88.3829H641.205L684.197 9.38729L697.068 33.0371Z" fill="#F4F4F4"/>
<path d="M686.816 88.383H691.38L701.619 69.5821L711.871 88.383H716.434L701.605 61.2056L686.816 88.383Z" fill="#F4F4F4"/>
<path d="M701.645 33.0503V33.0635L701.632 33.0371L699.357 37.2254L699.37 37.2386L671.524 88.3829H676.088L701.645 41.4401L727.189 88.3829H731.753H731.766L701.645 33.0503Z" fill="#F4F4F4"/>
<path d="M397.37 42.259L395.082 46.4473L402.595 60.2144L434.846 0.99736L430.269 0.99736L402.595 51.851L397.37 42.259Z" fill="#F4F4F4"/>
<path d="M389.698 56.3433L387.409 60.5447L402.569 88.3828L450.138 0.997429L445.561 0.997428L402.569 79.9931L389.698 56.3433Z" fill="#F4F4F4"/>
<path d="M399.95 0.997349L395.386 0.997348L385.147 19.7983L374.895 0.997347L370.332 0.997346L385.161 28.1748L399.95 0.997349Z" fill="#F4F4F4"/>
<path d="M385.121 56.33L385.121 56.3168L385.134 56.3433L387.409 52.155L387.396 52.1418L415.242 0.997429L410.678 0.997428L385.121 47.9403L359.577 0.997424L355.013 0.997424L355 0.997424L385.121 56.33Z" fill="#F4F4F4"/>
<path d="M622.534 42.259L620.245 46.4473L627.759 60.2144L660.009 0.99736L655.432 0.99736L627.759 51.851L622.534 42.259Z" fill="#F4F4F4"/>
<path d="M614.861 56.3433L612.573 60.5447L627.732 88.3828L675.301 0.997429L670.724 0.997428L627.732 79.9931L614.861 56.3433Z" fill="#F4F4F4"/>
<path d="M625.113 0.997349L620.549 0.997348L610.311 19.7983L600.059 0.997347L595.495 0.997346L610.324 28.1748L625.113 0.997349Z" fill="#F4F4F4"/>
<path d="M610.284 56.33L610.284 56.3168L610.297 56.3433L612.573 52.155L612.559 52.1418L640.405 0.997429L635.841 0.997428L610.284 47.9403L584.74 0.997424L580.177 0.997424L580.163 0.997424L610.284 56.33Z" fill="#F4F4F4"/>
<path d="M509.952 42.259L507.663 46.4473L515.177 60.2144L547.428 0.99736L542.851 0.99736L515.177 51.851L509.952 42.259Z" fill="#F4F4F4"/>
<path d="M502.28 56.3433L499.991 60.5447L515.151 88.3828L562.72 0.997429L558.143 0.997428L515.151 79.9931L502.28 56.3433Z" fill="#F4F4F4"/>
<path d="M512.531 0.997349L507.968 0.997348L497.729 19.7983L487.477 0.997347L482.913 0.997346L497.742 28.1748L512.531 0.997349Z" fill="#F4F4F4"/>
<path d="M497.703 56.33L497.703 56.3168L497.716 56.3433L499.991 52.155L499.978 52.1418L527.823 0.997429L523.26 0.997428L497.703 47.9403L472.159 0.997424L467.595 0.997424L467.582 0.997424L497.703 56.33Z" fill="#F4F4F4"/>
<path d="M735.115 42.259L732.827 46.4473L740.341 60.2144L772.591 0.99736L768.014 0.99736L740.341 51.851L735.115 42.259Z" fill="#F4F4F4"/>
<path d="M727.443 56.3433L725.154 60.5447L740.314 88.3828L787.883 0.997429L783.306 0.997428L740.314 79.9931L727.443 56.3433Z" fill="#F4F4F4"/>
<path d="M737.695 0.997349L733.131 0.997348L722.892 19.7983L712.641 0.997347L708.077 0.997346L722.906 28.1748L737.695 0.997349Z" fill="#F4F4F4"/>
<path d="M722.866 56.33L722.866 56.3168L722.879 56.3433L725.154 52.155L725.141 52.1418L752.987 0.997429L748.423 0.997428L722.866 47.9403L697.322 0.997424L692.758 0.997424L692.745 0.997424L722.866 56.33Z" fill="#F4F4F4"/>
</g>
<g clip-path="url(#clip0_372_2)">
<path d="M341.913 79.4648H270.166V79.7108H341.913V79.4648Z" fill="#373737"/>
<path d="M254 67.8598V67.7192H259.717V69.3796H259.594C259.516 69.1594 259.415 68.9474 259.295 68.7471C259.196 68.5714 259.072 68.4115 258.926 68.2727C258.781 68.1371 258.611 68.0325 258.424 67.9652C258.21 67.8904 257.983 67.8547 257.756 67.8598H256.296V70.9697H256.85C257.057 70.9767 257.264 70.9409 257.457 70.8643C257.615 70.8053 257.757 70.7088 257.87 70.5831C257.984 70.4456 258.076 70.2915 258.143 70.1263C258.215 69.9316 258.274 69.732 258.319 69.5289H258.442V72.4983H258.319C258.266 72.3138 258.213 72.1293 258.152 71.9624C258.096 71.7944 258.013 71.6369 257.905 71.4968C257.807 71.3645 257.677 71.2588 257.527 71.1893C257.352 71.1038 257.159 71.0616 256.964 71.0663H256.313V74.431H257.193V74.5715H254V74.431H254.88V67.8247L254 67.8598Z" fill="#373737"/>
<path d="M260.606 67.8598V67.7192H262.875H263.675C263.944 67.7207 264.212 67.7472 264.476 67.7983C264.743 67.8463 265.001 67.9352 265.241 68.0619C265.47 68.1866 265.668 68.3607 265.821 68.5714C265.979 68.8076 266.059 69.087 266.05 69.3708C266.056 69.6055 265.995 69.8371 265.874 70.0385C265.762 70.221 265.608 70.3745 265.426 70.4865C265.234 70.6041 265.027 70.6929 264.81 70.7501C264.591 70.8114 264.368 70.8526 264.141 70.8731C264.458 70.9346 264.74 70.9872 265.021 71.0487C265.248 71.101 265.465 71.1901 265.663 71.3123C265.85 71.4289 266 71.5966 266.094 71.7955C266.215 72.0549 266.284 72.3354 266.296 72.6213C266.296 73.0254 266.349 73.3592 266.375 73.5964C266.385 73.7887 266.412 73.9798 266.455 74.1674C266.473 74.2703 266.522 74.3652 266.595 74.4397C266.678 74.4887 266.772 74.5131 266.868 74.51C266.926 74.5127 266.983 74.504 267.038 74.4844C267.092 74.4648 267.142 74.4347 267.185 74.3958C267.26 74.3526 267.334 74.3057 267.405 74.2552L267.501 74.3343C267.444 74.4001 267.383 74.4618 267.317 74.5188C267.251 74.5726 267.18 74.6197 267.106 74.6594C267.01 74.7015 266.91 74.731 266.806 74.7472C266.663 74.7625 266.519 74.7625 266.375 74.7472C266.073 74.7712 265.769 74.7135 265.496 74.5803C265.311 74.4826 265.156 74.337 265.047 74.1586C264.953 73.9904 264.894 73.8053 264.871 73.614C264.871 73.4119 264.871 73.2274 264.827 73.0517C264.783 72.876 264.827 72.5334 264.775 72.2874C264.757 72.0608 264.704 71.8384 264.616 71.6286C264.536 71.4413 264.405 71.2801 264.238 71.1629C264.026 71.0356 263.781 70.9745 263.535 70.9873H262.892V74.5012H263.772V74.6418H260.588V74.5012H261.468V67.8949L260.606 67.8598ZM263.297 70.8467C263.531 70.8546 263.764 70.8158 263.983 70.7325C264.137 70.6652 264.268 70.5555 264.361 70.4162C264.45 70.2822 264.505 70.1283 264.52 69.9682C264.533 69.7957 264.533 69.6224 264.52 69.4499C264.522 69.2058 264.505 68.9619 264.467 68.7207C264.434 68.5433 264.368 68.3735 264.273 68.22C264.179 68.0884 264.047 67.9875 263.895 67.9301C263.704 67.8574 263.501 67.8246 263.297 67.8334H263.077H262.866V70.8204L263.297 70.8467Z" fill="#373737"/>
<path d="M270.756 67.7192V67.8597H269.876V72.1995C269.876 72.4982 269.876 72.7969 269.92 73.078C269.942 73.3454 270.011 73.607 270.122 73.8511C270.228 74.0725 270.392 74.2609 270.597 74.3957C270.862 74.5545 271.169 74.6282 271.477 74.6066C271.775 74.6128 272.072 74.5713 272.357 74.4836C272.569 74.4181 272.767 74.3106 272.937 74.1674C273.088 74.046 273.211 73.8931 273.298 73.7193C273.382 73.5648 273.444 73.3992 273.482 73.2274C273.517 73.0742 273.541 72.9185 273.553 72.7618C273.553 72.6212 273.553 72.4982 273.553 72.4016V67.8597H272.673V67.7192H274.608V67.8597H273.729V72.3928C273.729 72.4982 273.729 72.6212 273.729 72.7793C273.726 72.9485 273.702 73.1167 273.658 73.2801C273.609 73.4606 273.538 73.6345 273.447 73.7984C273.351 73.9834 273.216 74.1453 273.051 74.2728C272.853 74.4221 272.63 74.5352 272.392 74.6066C272.075 74.7019 271.746 74.7463 271.415 74.7384C270.906 74.7557 270.397 74.6844 269.911 74.5275C269.578 74.4252 269.275 74.241 269.032 73.9917C268.832 73.7778 268.696 73.5135 268.636 73.2274C268.567 72.9398 268.534 72.6446 268.539 72.3489V67.8334H267.66V67.6929L270.756 67.7192Z" fill="#373737"/>
<path d="M275.541 72.4981C275.541 72.5772 275.541 72.6826 275.602 72.8056C275.64 72.9433 275.687 73.0783 275.743 73.2097C275.808 73.366 275.888 73.516 275.98 73.6577C276.074 73.814 276.189 73.956 276.323 74.0794C276.451 74.21 276.596 74.3224 276.754 74.4132C276.879 74.4868 277.012 74.5457 277.15 74.5889C277.267 74.623 277.389 74.6407 277.511 74.6417H277.819C278.121 74.6596 278.423 74.6023 278.698 74.4747C278.899 74.3879 279.077 74.2556 279.217 74.0882C279.335 73.9422 279.425 73.7753 279.481 73.5962C279.53 73.4517 279.557 73.3007 279.56 73.1482C279.569 72.9392 279.511 72.7328 279.393 72.5596C279.271 72.402 279.119 72.2706 278.945 72.1731C278.739 72.0664 278.524 71.9782 278.302 71.9095L277.564 71.6987C277.317 71.6196 277.071 71.5318 276.834 71.4351C276.6 71.3413 276.384 71.2108 276.191 71.0486C276.002 70.8864 275.849 70.6858 275.743 70.46C275.62 70.1841 275.562 69.8833 275.576 69.5815C275.573 69.3249 275.634 69.0716 275.752 68.8436C275.868 68.6019 276.033 68.3866 276.235 68.2111C276.452 68.0178 276.703 67.866 276.974 67.763C277.271 67.6479 277.588 67.5912 277.907 67.5961C278.096 67.5941 278.284 67.6118 278.47 67.6488L278.892 67.7718L279.217 67.8948C279.298 67.9298 279.384 67.9506 279.472 67.9563C279.529 67.9764 279.591 67.9764 279.648 67.9563C279.69 67.9068 279.723 67.8503 279.745 67.7894H279.903V69.6254H279.719C279.639 69.4058 279.56 69.1774 279.472 68.9665C279.391 68.7521 279.278 68.5508 279.138 68.3692C279.002 68.1897 278.828 68.0427 278.628 67.9387C278.385 67.8181 278.116 67.7607 277.845 67.7718C277.612 67.7676 277.38 67.8032 277.159 67.8772C276.979 67.9404 276.812 68.0356 276.666 68.1583C276.534 68.2631 276.426 68.3949 276.35 68.5449C276.281 68.681 276.245 68.8315 276.244 68.9841C276.239 69.1872 276.304 69.3859 276.429 69.5464C276.559 69.7012 276.717 69.8294 276.895 69.9241C277.104 70.039 277.326 70.1303 277.555 70.1965L278.32 70.4424C278.584 70.5215 278.839 70.6181 279.085 70.7147C279.322 70.8118 279.544 70.9419 279.745 71.1013C279.939 71.2517 280.101 71.44 280.22 71.6547C280.344 71.909 280.404 72.1892 280.396 72.4717C280.396 72.7752 280.33 73.075 280.202 73.3502C280.074 73.6338 279.888 73.888 279.657 74.097C279.396 74.3175 279.099 74.49 278.777 74.6065C278.431 74.7332 278.064 74.7957 277.696 74.791C277.495 74.7927 277.294 74.7721 277.097 74.7295L276.543 74.6153L276.095 74.4923C275.997 74.4616 275.897 74.441 275.796 74.4308C275.728 74.4266 275.661 74.4419 275.602 74.4747C275.55 74.5252 275.514 74.5891 275.497 74.6592H275.338V72.4981H275.541ZM277.564 67.2799L276.517 65.3823H276.631L277.915 66.6034L279.208 65.3823H279.323L278.267 67.2799H277.564Z" fill="#373737"/>
<path d="M284.644 67.7192V67.8598H283.765V70.9521H283.835L286.799 67.8598H285.823V67.7192H287.758V67.8598H286.984L284.829 70.1175L288.171 74.51H288.769V74.6506H285.541V74.51H286.421L283.844 71.1278H283.773V74.51H284.653V74.6506H281.478V74.51H282.357V67.9037H281.478V67.7632L284.644 67.7192Z" fill="#373737"/>
<path d="M294.724 67.7192V69.3796H294.601C294.555 69.2352 294.499 69.0943 294.434 68.9579C294.352 68.7753 294.242 68.6064 294.108 68.4572C293.954 68.2875 293.773 68.145 293.572 68.0355C293.323 67.9128 293.048 67.8525 292.771 67.8598H291.232V70.8467H291.777C291.982 70.853 292.186 70.8171 292.376 70.7413C292.536 70.6811 292.678 70.5813 292.789 70.4513C292.904 70.3179 292.996 70.1665 293.062 70.0033C293.133 69.8082 293.192 69.6086 293.238 69.4059H293.361V72.4104H293.238C293.185 72.2259 293.132 72.0415 293.07 71.8658C293.017 71.6998 292.933 71.545 292.824 71.4089C292.723 71.2765 292.594 71.1684 292.446 71.0927C292.269 71.0143 292.077 70.9754 291.883 70.9785H291.232V74.4925H292.815C293.093 74.4999 293.368 74.4489 293.625 74.3431C293.862 74.2466 294.077 74.1032 294.258 73.9214C294.446 73.7388 294.601 73.5248 294.715 73.2889C294.838 73.0426 294.932 72.7832 294.997 72.5158H295.12V74.633H288.963V74.4925H289.842V67.8862H288.963V67.7456L294.724 67.7192Z" fill="#373737"/>
<path d="M298.594 67.8598V67.7192H300.828H301.637C301.903 67.7207 302.168 67.7472 302.429 67.7983C302.699 67.8475 302.959 67.9363 303.203 68.0619C303.429 68.1877 303.624 68.3617 303.775 68.5714C303.936 68.8057 304.017 69.0865 304.003 69.3708C304.013 69.606 303.952 69.8387 303.827 70.0385C303.715 70.221 303.562 70.3745 303.379 70.4865C303.188 70.6041 302.98 70.6929 302.763 70.7501C302.548 70.8114 302.327 70.8526 302.103 70.8731C302.411 70.9345 302.702 70.9872 302.983 71.0487C303.21 71.1026 303.426 71.1916 303.625 71.3123C303.81 71.4314 303.959 71.5984 304.056 71.7955C304.174 72.0555 304.239 72.336 304.25 72.6212C304.25 73.0254 304.311 73.3592 304.329 73.5964C304.341 73.789 304.37 73.9802 304.417 74.1674C304.431 74.2717 304.481 74.3678 304.557 74.4397C304.636 74.49 304.728 74.5145 304.821 74.51C304.941 74.5158 305.057 74.4748 305.147 74.3958L305.367 74.1937L305.463 74.2728C305.403 74.3388 305.339 74.4005 305.27 74.4573C305.204 74.5111 305.134 74.5582 305.059 74.5979C304.966 74.64 304.869 74.6695 304.769 74.6857C304.622 74.7009 304.475 74.7009 304.329 74.6857C304.043 74.702 303.759 74.6445 303.502 74.5188C303.317 74.4211 303.162 74.2754 303.053 74.0971C302.956 73.9305 302.896 73.7446 302.877 73.5524C302.851 73.3662 302.836 73.1784 302.834 72.9902C302.834 72.7354 302.834 72.4719 302.781 72.2259C302.743 72.0162 302.678 71.8124 302.587 71.6198C302.507 71.4325 302.376 71.2713 302.209 71.1541C301.995 71.0256 301.746 70.9645 301.497 70.9785H300.863V74.4924H301.743V74.633H298.559V74.4924H299.438V67.8862L298.594 67.8598ZM301.285 70.8467C301.519 70.8546 301.753 70.8158 301.972 70.7325C302.125 70.6652 302.256 70.5555 302.35 70.4162C302.431 70.2785 302.485 70.1263 302.508 69.9682C302.521 69.7957 302.521 69.6224 302.508 69.4499C302.513 69.2054 302.492 68.961 302.447 68.7207C302.418 68.5422 302.352 68.3716 302.253 68.22C302.163 68.0871 302.034 67.9856 301.884 67.9301C301.69 67.8567 301.483 67.8238 301.277 67.8334H301.066H300.854V70.8203L301.285 70.8467Z" fill="#373737"/>
<path d="M311.383 67.7192V69.3796H311.26C311.214 69.2352 311.158 69.0943 311.093 68.9579C311.011 68.7753 310.901 68.6064 310.767 68.4572C310.615 68.2854 310.434 68.1425 310.231 68.0355C309.982 67.9128 309.707 67.8525 309.43 67.8598H307.865V70.8467H308.41C308.615 70.853 308.818 70.8171 309.008 70.7413C309.168 70.6811 309.31 70.5813 309.421 70.4513C309.539 70.3202 309.632 70.1682 309.694 70.0033C309.77 69.8095 309.828 69.6097 309.87 69.4059H309.993V72.4104H309.87C309.827 72.2263 309.774 72.0445 309.712 71.8658C309.651 71.7029 309.568 71.5492 309.465 71.4089C309.36 71.278 309.228 71.1703 309.078 71.0927C308.901 71.0143 308.709 70.9754 308.516 70.9785H307.865V74.4925H309.448C309.725 74.4999 310.001 74.4489 310.257 74.3431C310.495 74.2466 310.71 74.1032 310.89 73.9214C311.079 73.7388 311.233 73.5248 311.348 73.2889C311.474 73.0442 311.569 72.7844 311.629 72.5158H311.752V74.633H305.595V74.4925H306.475V67.8862H305.595V67.7456L311.383 67.7192Z" fill="#373737"/>
<path d="M312.984 72.4985C312.984 72.5776 312.984 72.683 313.045 72.806C313.083 72.9437 313.13 73.0787 313.186 73.2101C313.251 73.3664 313.331 73.5164 313.424 73.6581C313.517 73.8144 313.633 73.9564 313.767 74.0798C313.894 74.2104 314.039 74.3227 314.198 74.4136C314.322 74.4871 314.455 74.5461 314.593 74.5893C314.711 74.6234 314.832 74.6411 314.954 74.642H315.262C315.564 74.66 315.867 74.6027 316.141 74.4751C316.342 74.3883 316.52 74.256 316.66 74.0886C316.778 73.9426 316.868 73.7757 316.924 73.5966C316.973 73.4521 317 73.3011 317.003 73.1486C317.012 72.9396 316.954 72.7332 316.836 72.56C316.713 72.4002 316.557 72.2685 316.379 72.1735C316.177 72.0652 315.965 71.977 315.746 71.9099L315.007 71.6991C314.76 71.62 314.514 71.5321 314.277 71.4355C314.043 71.3417 313.827 71.2112 313.635 71.049C313.445 70.8868 313.292 70.6862 313.186 70.4604C313.063 70.1845 313.005 69.8837 313.019 69.5819C313.018 69.3264 313.075 69.0741 313.186 68.844C313.309 68.6039 313.476 68.3892 313.679 68.2114C313.895 68.0182 314.146 67.8663 314.417 67.7634C314.715 67.6482 315.031 67.5916 315.35 67.5965C315.539 67.5945 315.727 67.6122 315.913 67.6492L316.335 67.7722L316.66 67.8952C316.741 67.9311 316.827 67.952 316.915 67.9567C316.972 67.9768 317.034 67.9768 317.091 67.9567C317.133 67.9071 317.166 67.8506 317.188 67.7898H317.338V69.6258H317.214C317.135 69.4062 317.056 69.1778 316.968 68.9669C316.883 68.7541 316.771 68.5533 316.634 68.3696C316.498 68.1901 316.324 68.0431 316.124 67.9391C315.881 67.8185 315.612 67.7611 315.341 67.7722C315.108 67.7679 314.876 67.8036 314.655 67.8776C314.475 67.9408 314.308 68.036 314.162 68.1587C314.03 68.2635 313.922 68.3953 313.846 68.5453C313.777 68.6814 313.74 68.8319 313.74 68.9845C313.735 69.1876 313.8 69.3863 313.925 69.5468C314.054 69.7015 314.213 69.8298 314.391 69.9245C314.6 70.0394 314.821 70.1307 315.051 70.1969L315.816 70.4428C316.08 70.5219 316.335 70.6185 316.581 70.7151C316.818 70.8122 317.04 70.9423 317.241 71.1017C317.435 71.2521 317.597 71.4404 317.716 71.6551C317.839 71.9094 317.9 72.1896 317.892 72.4721C317.892 72.7755 317.826 73.0754 317.698 73.3506C317.57 73.6342 317.384 73.8884 317.153 74.0974C316.892 74.3179 316.594 74.4904 316.273 74.6069C315.927 74.7336 315.56 74.7961 315.191 74.7914C314.99 74.7931 314.79 74.7725 314.593 74.7299L314.039 74.6157L313.582 74.4927C313.488 74.4622 313.39 74.4416 313.292 74.4312C313.224 74.427 313.157 74.4422 313.098 74.4751C313.046 74.5256 313.01 74.5895 312.993 74.6596H312.834V72.4985H312.984Z" fill="#373737"/>
<path d="M322.052 67.7192V67.8598H321.173V74.4661H322.052V74.6067H318.877V74.4661H319.756V67.8598H318.877V67.7192H322.052Z" fill="#373737"/>
<path d="M322.747 67.8598V67.7192H324.62H325.606C325.914 67.719 326.223 67.7396 326.529 67.7807C326.854 67.8185 327.175 67.8861 327.488 67.9828C327.794 68.0861 328.089 68.2216 328.367 68.3869C328.654 68.5559 328.91 68.7728 329.124 69.0282C329.346 69.2891 329.522 69.5863 329.643 69.9067C329.781 70.3078 329.846 70.7301 329.836 71.1541C329.847 71.5753 329.781 71.9949 329.643 72.3929C329.522 72.7132 329.346 73.0104 329.124 73.2713C328.919 73.5283 328.668 73.7456 328.385 73.9126C328.107 74.0783 327.812 74.2138 327.505 74.3168C327.219 74.4121 326.925 74.4797 326.626 74.5188C326.355 74.5598 326.082 74.5804 325.808 74.5803H322.729V74.4398H323.609V67.8334L322.747 67.8598ZM325.553 74.5013C325.916 74.5071 326.278 74.4567 326.626 74.3519C326.898 74.2611 327.152 74.1211 327.373 73.939C327.57 73.7777 327.734 73.581 327.857 73.3592C327.975 73.1393 328.067 72.9064 328.13 72.6652C328.189 72.4289 328.228 72.1879 328.244 71.9448C328.257 71.7166 328.257 71.4879 328.244 71.2596C328.246 70.7864 328.214 70.3137 328.148 69.8452C328.094 69.4623 327.963 69.0944 327.761 68.7647C327.569 68.4592 327.29 68.2176 326.96 68.0707C326.528 67.8962 326.063 67.8153 325.597 67.8334H325.254C325.169 67.8229 325.083 67.8229 324.999 67.8334V74.4398C325.227 74.4837 325.394 74.5013 325.553 74.5013Z" fill="#373737"/>
<path d="M336.459 67.7192V69.3796H336.336C336.291 69.2352 336.235 69.0943 336.169 68.9579C336.09 68.7737 335.98 68.6043 335.844 68.4572C335.692 68.2854 335.51 68.1425 335.307 68.0355C335.059 67.9118 334.784 67.8515 334.507 67.8598H332.968V70.8467H333.513C333.72 70.852 333.926 70.8162 334.12 70.7413C334.276 70.6789 334.415 70.5793 334.524 70.4513C334.642 70.3202 334.735 70.1682 334.797 70.0033C334.872 69.8095 334.931 69.6097 334.973 69.4059H335.131V72.4104H335.008C334.965 72.2263 334.912 72.0445 334.85 71.8658C334.789 71.7029 334.706 71.5492 334.603 71.4089C334.498 71.278 334.366 71.1703 334.216 71.0927C334.04 71.0132 333.847 70.9742 333.654 70.9785H333.003V74.4925H334.595C334.869 74.4989 335.142 74.448 335.395 74.3431C335.632 74.2466 335.848 74.1032 336.028 73.9214C336.217 73.7388 336.371 73.5248 336.486 73.2889C336.612 73.0442 336.707 72.7844 336.767 72.5158H336.89V74.633H330.733V74.4925H331.613V67.8862H330.733V67.7456L336.459 67.7192Z" fill="#373737"/>
<path d="M339.916 67.7192L343.135 72.3225V67.8598H342.256V67.7192H344.191V67.8598H343.311V74.6067H343.047L338.693 68.4572V74.51H339.573V74.6506H337.638V74.51H338.518V67.9037H337.638V67.7632L339.916 67.7192Z" fill="#373737"/>
<path d="M350.708 69.6959C350.629 69.485 350.55 69.2566 350.444 69.0194C350.347 68.7883 350.216 68.5724 350.057 68.3781C349.886 68.1575 349.663 67.981 349.409 67.8633C349.155 67.7457 348.877 67.6902 348.597 67.7017C348.207 67.6809 347.82 67.7725 347.48 67.9652C347.209 68.1398 346.995 68.3903 346.865 68.6856C346.719 69.0385 346.63 69.412 346.601 69.7925C346.601 70.2229 346.539 70.671 346.539 71.1981C346.532 71.757 346.573 72.3155 346.662 72.8672C346.713 73.2332 346.835 73.5855 347.023 73.9038C347.172 74.1502 347.398 74.3413 347.665 74.4485C347.963 74.5609 348.279 74.6146 348.597 74.6067C348.868 74.6091 349.136 74.549 349.38 74.431C349.614 74.3174 349.826 74.1626 350.005 73.9741C350.19 73.7791 350.344 73.5569 350.462 73.3152C350.585 73.0732 350.677 72.8164 350.735 72.551H350.884V74.6067H350.735C350.711 74.5426 350.671 74.4853 350.62 74.4397C350.554 74.424 350.485 74.424 350.418 74.4397C350.314 74.4436 350.21 74.4613 350.11 74.4925L349.697 74.6067C349.539 74.6067 349.363 74.6857 349.178 74.7209C348.983 74.7562 348.786 74.7739 348.589 74.7736C348.12 74.7767 347.656 74.684 347.225 74.5013C346.796 74.3219 346.402 74.0659 346.064 73.7457C345.729 73.4245 345.457 73.043 345.264 72.6213C345.066 72.1792 344.964 71.7 344.965 71.2156C344.959 70.7015 345.073 70.193 345.299 69.731C345.515 69.2967 345.814 68.9088 346.179 68.5889C346.516 68.2748 346.91 68.0274 347.34 67.8598C347.742 67.6975 348.172 67.6111 348.606 67.605C348.798 67.6039 348.99 67.6216 349.178 67.6577L349.67 67.7807L350.084 67.9037C350.183 67.937 350.287 67.9577 350.392 67.9652C350.459 67.9776 350.527 67.9776 350.594 67.9652C350.622 67.9448 350.645 67.9184 350.662 67.8881C350.679 67.8577 350.688 67.8241 350.691 67.7895H350.849V69.7661L350.708 69.6959Z" fill="#373737"/>
<path d="M357.604 67.7192V69.3796H357.481C357.435 69.2352 357.38 69.0943 357.314 68.9579C357.232 68.7753 357.122 68.6064 356.988 68.4572C356.835 68.2875 356.653 68.145 356.452 68.0355C356.203 67.9128 355.929 67.8525 355.652 67.8598H354.112V70.8467H354.649C354.856 70.852 355.062 70.8162 355.256 70.7413C355.415 70.6789 355.556 70.5795 355.669 70.4513C355.784 70.3179 355.876 70.1665 355.942 70.0033C356.014 69.8092 356.07 69.6094 356.109 69.4059H356.241V72.4104H356.109C356.065 72.2263 356.013 72.0445 355.951 71.8658C355.893 71.7014 355.81 71.5471 355.704 71.4089C355.604 71.2765 355.474 71.1684 355.326 71.0927C355.146 71.0133 354.951 70.9744 354.754 70.9785H354.112V74.4925H355.696C355.97 74.4997 356.243 74.4487 356.496 74.3431C356.735 74.2504 356.951 74.1064 357.129 73.9214C357.32 73.7392 357.478 73.5252 357.595 73.2889C357.718 73.0426 357.812 72.7832 357.877 72.5158H358V74.633H351.843V74.4925H352.723V67.8862H351.843V67.7456L357.604 67.7192Z" fill="#373737"/>
<path d="M271.336 84.4546L269.735 88.1355H268.856L267.264 84.4546H268.187L269.313 87.0901L270.448 84.4546H271.336Z" fill="#373737"/>
<path d="M274.52 88.1355L273.808 87.1077H273.025V88.1355H272.146V84.4546H273.738C274.731 84.4546 275.347 84.9641 275.347 85.7899C275.358 86.039 275.29 86.2851 275.152 86.4933C275.015 86.7015 274.815 86.8611 274.582 86.9495L275.409 88.1355H274.52ZM273.72 85.1486H273.025V86.4312H273.72C274.239 86.4312 274.503 86.1852 274.503 85.7899C274.503 85.3946 274.239 85.1486 273.72 85.1486Z" fill="#373737"/>
<path d="M276.578 84.4546H278.25C278.51 84.4234 278.774 84.4478 279.025 84.526C279.275 84.6042 279.506 84.7346 279.702 84.9085C279.899 85.0824 280.056 85.296 280.163 85.535C280.271 85.774 280.326 86.033 280.326 86.2951C280.326 86.5571 280.271 86.8162 280.163 87.0552C280.056 87.2942 279.899 87.5076 279.702 87.6816C279.506 87.8555 279.275 87.9859 279.025 88.0641C278.774 88.1424 278.51 88.1667 278.25 88.1355H276.578V84.4546ZM278.214 87.4327C278.518 87.4327 278.809 87.3124 279.023 87.0982C279.237 86.8841 279.358 86.5936 279.358 86.2907C279.358 85.9878 279.237 85.6973 279.023 85.4831C278.809 85.2689 278.518 85.1486 278.214 85.1486H277.432V87.4327H278.214Z" fill="#373737"/>
<path d="M284.846 84.4546V88.1355H284.116L282.278 85.8953V88.1355H281.398V84.4546H282.111L283.94 86.686V84.4546H284.846Z" fill="#373737"/>
<path d="M286.254 84.4546H287.133V88.1355H286.254V84.4546Z" fill="#373737"/>
<path d="M289.86 86.686L289.359 87.2043V88.1355H288.479V84.4546H289.359V86.2116L290.995 84.4546H291.945L290.414 86.0974L292.032 88.1355H291.039L289.86 86.686Z" fill="#373737"/>
<path d="M294.812 86.6599C294.814 86.5299 294.854 86.4034 294.927 86.2962C295.001 86.189 295.105 86.106 295.225 86.0574C295.346 86.0089 295.478 85.9971 295.606 86.0235C295.733 86.0499 295.85 86.1134 295.941 86.2059C296.032 86.2984 296.094 86.4157 296.119 86.5433C296.144 86.6709 296.13 86.8029 296.08 86.9228C296.03 87.0426 295.945 87.145 295.837 87.2171C295.729 87.2891 295.602 87.3275 295.472 87.3275C295.384 87.3287 295.297 87.3122 295.216 87.279C295.135 87.2458 295.061 87.1965 294.999 87.1341C294.938 87.0718 294.889 86.9976 294.857 86.9161C294.825 86.8346 294.81 86.7474 294.812 86.6599Z" fill="#373737"/>
<path d="M300.256 85.1311V86.1062H301.972V86.7914H300.256V88.1355H299.377V84.4546H302.165V85.1311H300.256Z" fill="#373737"/>
<path d="M305.657 88.1355L304.945 87.1077H304.162V88.1355H303.282V84.4546H304.874C305.859 84.4546 306.484 84.9641 306.484 85.7899C306.494 86.039 306.426 86.2851 306.289 86.4933C306.152 86.7015 305.952 86.8611 305.719 86.9495L306.545 88.1355H305.657ZM304.857 85.1486H304.162V86.4312H304.857C305.376 86.4312 305.639 86.1852 305.639 85.7899C305.639 85.3946 305.376 85.1486 304.857 85.1486Z" fill="#373737"/>
<path d="M307.68 86.5542V84.4897H308.56V86.5191C308.56 87.2219 308.867 87.5118 309.386 87.5118C309.905 87.5118 310.204 87.2219 310.204 86.5191V84.4897H311.084V86.5542C311.084 86.9969 310.908 87.4214 310.594 87.7345C310.281 88.0475 309.856 88.2234 309.413 88.2234C308.97 88.2234 308.544 88.0475 308.231 87.7345C307.918 87.4214 307.742 86.9969 307.742 86.5542H307.68Z" fill="#373737"/>
<path d="M315.174 87.0549C315.174 87.6787 314.664 88.2057 313.608 88.2057C313.075 88.2174 312.55 88.0674 312.104 87.7753L312.394 87.134C312.755 87.3786 313.181 87.5102 313.617 87.5118C314.127 87.5118 314.329 87.3448 314.329 87.1252C314.329 86.4312 312.183 86.9056 312.183 85.5351C312.183 84.9114 312.685 84.3843 313.74 84.3843C314.188 84.3755 314.63 84.491 315.016 84.7181L314.752 85.3594C314.442 85.1773 314.091 85.0774 313.731 85.0695C313.23 85.0695 313.028 85.2628 313.028 85.4912C313.028 86.1764 315.174 85.6757 315.174 87.0549ZM313.309 84.1471L312.614 83.3916H313.212L313.679 83.7869L314.136 83.3916H314.734L314.039 84.1471H313.309Z" fill="#373737"/>
<path d="M317.637 86.686L317.144 87.2043V88.1355H316.265V84.4546H317.144V86.2116L318.78 84.4546H319.73L318.2 86.0974L319.818 88.1355H318.815L317.637 86.686Z" fill="#373737"/>
<path d="M322.993 87.3449H321.278L320.953 88.1355H320.073L321.718 84.4546H322.597L324.251 88.1355H323.371L322.993 87.3449ZM322.721 86.7035L322.14 85.2892L321.551 86.7035H322.721Z" fill="#373737"/>
<path d="M329.652 86.2379H330.426V87.7313C329.993 88.0428 329.472 88.209 328.939 88.2057C328.677 88.2235 328.414 88.1873 328.166 88.0993C327.919 88.0113 327.692 87.8734 327.5 87.6942C327.308 87.5151 327.155 87.2984 327.05 87.0577C326.946 86.817 326.892 86.5574 326.892 86.295C326.892 86.0326 326.946 85.773 327.05 85.5323C327.155 85.2916 327.308 85.0749 327.5 84.8957C327.692 84.7165 327.919 84.5787 328.166 84.4907C328.414 84.4027 328.677 84.3665 328.939 84.3843C329.228 84.3721 329.517 84.4232 329.784 84.534C330.051 84.6448 330.291 84.8125 330.487 85.0256L329.942 85.5263C329.821 85.3934 329.672 85.2878 329.507 85.2166C329.342 85.1454 329.163 85.1102 328.983 85.1134C328.819 85.0993 328.654 85.1193 328.498 85.1723C328.343 85.2252 328.199 85.31 328.078 85.4211C327.957 85.5322 327.86 85.6672 327.794 85.8177C327.728 85.9681 327.694 86.1307 327.694 86.295C327.694 86.4593 327.728 86.6219 327.794 86.7723C327.86 86.9227 327.957 87.0578 328.078 87.1689C328.199 87.28 328.343 87.3647 328.498 87.4177C328.654 87.4706 328.819 87.4907 328.983 87.4765C329.216 87.4798 329.445 87.4255 329.652 87.3184V86.2379Z" fill="#373737"/>
<path d="M331.516 86.2905C331.495 85.8871 331.596 85.4866 331.805 85.1407C332.014 84.7949 332.322 84.5196 332.689 84.3503C333.056 84.1811 333.466 84.1258 333.865 84.1914C334.264 84.2571 334.635 84.4407 334.928 84.7186C335.222 84.9966 335.425 85.356 335.512 85.7505C335.599 86.1451 335.566 86.5566 335.416 86.932C335.267 87.3074 335.008 87.6294 334.673 87.8564C334.339 88.0835 333.944 88.2051 333.539 88.2057C333.279 88.22 333.018 88.1811 332.773 88.0913C332.528 88.0015 332.304 87.8627 332.115 87.6834C331.925 87.5041 331.775 87.2881 331.672 87.0486C331.569 86.8091 331.516 86.5512 331.516 86.2905ZM334.691 86.2905C334.685 86.0646 334.611 85.8456 334.48 85.661C334.35 85.4764 334.167 85.3344 333.956 85.2527C333.745 85.171 333.515 85.1531 333.294 85.2014C333.073 85.2497 332.871 85.362 332.713 85.5242C332.555 85.6865 332.449 85.8915 332.407 86.1138C332.366 86.336 332.39 86.5656 332.478 86.7738C332.567 86.9821 332.714 87.1598 332.903 87.2848C333.092 87.4097 333.313 87.4764 333.539 87.4765C333.695 87.4804 333.849 87.4521 333.993 87.3934C334.137 87.3347 334.267 87.2469 334.375 87.1355C334.484 87.0241 334.568 86.8915 334.622 86.746C334.676 86.6006 334.7 86.4455 334.691 86.2905Z" fill="#373737"/>
<path d="M339.081 88.1355L338.368 87.1077H337.585V88.1355H336.706V84.4546H338.306C339.292 84.4546 339.907 84.9641 339.907 85.7899C339.917 86.0377 339.85 86.2825 339.714 86.4902C339.579 86.698 339.382 86.8586 339.151 86.9495L339.978 88.1355H339.081ZM338.28 85.1486H337.585V86.4312H338.28C338.808 86.4312 339.072 86.1852 339.072 85.7899C339.072 85.3946 338.808 85.1486 338.28 85.1486Z" fill="#373737"/>
<path d="M343.566 87.3449H341.851L341.526 88.1355H340.646L342.291 84.4546H343.171L344.806 88.1355H343.927L343.566 87.3449ZM343.302 86.7035L342.713 85.2892L342.133 86.7035H343.302Z" fill="#373737"/>
<path d="M309.501 31.6658L311.022 28.881L306.026 19.7271L284.583 59.1013H287.626L306.026 25.2879L309.501 31.6658Z" fill="#373737"/>
<path d="M314.602 22.3011L316.124 19.5075L306.044 0.997559L274.415 59.1013H277.458L306.044 6.57601L314.602 22.3011Z" fill="#373737"/>
<path d="M307.786 59.1014H310.82L317.628 46.6004L324.445 59.1014H327.479L317.619 41.0308L307.786 59.1014Z" fill="#373737"/>
<path d="M317.645 22.3101V22.3188L317.637 22.3013L316.124 25.0861L316.133 25.0949L297.618 59.1015H300.652L317.645 27.8885L334.63 59.1015H337.664H337.673L317.645 22.3101Z" fill="#373737"/>
</g>
<defs>
<clipPath id="clip0_372_2">
<rect width="104" height="87.2083" fill="white" transform="translate(254 0.997559)"/>
</clipPath>
</defs>
</svg>
